<?xml version="1.0" encoding="utf-8"?>
<svg version="1.1" xmlns:xlink="http://www.w3.org/1999/xlink" width="8px" height="14px" xmlns="http://www.w3.org/2000/svg">
  <g transform="matrix(1 0 0 1 -69 -315 )">
    <path d="M 4.58854166666667 13.21796875  C 4.75173611111111 13.0466145833333  4.83333333333333 12.840625  4.83333333333333 12.6  C 4.83333333333333 12.359375  4.75173611111111 12.1533854166667  4.58854166666667 11.98203125  C 4.42534722222222 11.8106770833333  4.22916666666667 11.725  4 11.725  C 3.77083333333333 11.725  3.57465277777778 11.8106770833333  3.41145833333333 11.98203125  C 3.24826388888889 12.1533854166667  3.16666666666667 12.359375  3.16666666666667 12.6  C 3.16666666666667 12.840625  3.24826388888889 13.0466145833333  3.41145833333333 13.21796875  C 3.57465277777778 13.3893229166667  3.77083333333333 13.475  4 13.475  C 4.22916666666667 13.475  4.42534722222222 13.3893229166667  4.58854166666667 13.21796875  Z M 6.90104166666667 11.09609375  C 6.96701388888889 11.0268229166667  7 10.9447916666667  7 10.85  L 7 3.15  C 7 3.05520833333333  6.96701388888889 2.97317708333333  6.90104166666667 2.90390625  C 6.83506944444445 2.83463541666667  6.75694444444445 2.8  6.66666666666667 2.8  L 1.33333333333333 2.8  C 1.24305555555556 2.8  1.16493055555556 2.83463541666667  1.09895833333333 2.90390625  C 1.03298611111111 2.97317708333333  1 3.05520833333333  1 3.15  L 1 10.85  C 1 10.9447916666667  1.03298611111111 11.0268229166667  1.09895833333333 11.09609375  C 1.16493055555556 11.1653645833333  1.24305555555556 11.2  1.33333333333333 11.2  L 6.66666666666667 11.2  C 6.75694444444445 11.2  6.83506944444445 11.1653645833333  6.90104166666667 11.09609375  Z M 4.83333333333333 1.75  C 4.94444444444445 1.75  5 1.69166666666667  5 1.575  C 5 1.45833333333333  4.94444444444445 1.4  4.83333333333333 1.4  L 3.16666666666667 1.4  C 3.05555555555556 1.4  3 1.45833333333333  3 1.575  C 3 1.69166666666667  3.05555555555556 1.75  3.16666666666667 1.75  L 4.83333333333333 1.75  Z M 7.60416666666667 0.415625  C 7.86805555555555 0.692708333333333  8 1.02083333333333  8 1.4  L 8 12.6  C 8 12.9791666666667  7.86805555555555 13.3072916666667  7.60416666666667 13.584375  C 7.34027777777778 13.8614583333333  7.02777777777778 14  6.66666666666667 14  L 1.33333333333333 14  C 0.972222222222222 14  0.659722222222222 13.8614583333333  0.395833333333333 13.584375  C 0.131944444444444 13.3072916666667  0 12.9791666666667  0 12.6  L 0 1.4  C 0 1.02083333333333  0.131944444444444 0.692708333333333  0.395833333333333 0.415625  C 0.659722222222222 0.138541666666665  0.972222222222222 0  1.33333333333333 0  L 6.66666666666667 0  C 7.02777777777778 0  7.34027777777778 0.138541666666665  7.60416666666667 0.415625  Z " fill-rule="nonzero" fill="#d7d7d7" stroke="none" transform="matrix(1 0 0 1 69 315 )" />
  </g>
</svg>