<?xml version="1.0" encoding="utf-8"?>
<svg version="1.1" xmlns:xlink="http://www.w3.org/1999/xlink" width="19px" height="19px" xmlns="http://www.w3.org/2000/svg">
  <g transform="matrix(1 0 0 1 -585 -124 )">
    <path d="M 12.876953125 3.673828125  C 11.8461371527778 3.07183159722222  10.7204861111111 2.77083333333333  9.5 2.77083333333333  C 8.27951388888889 2.77083333333333  7.15386284722222 3.07183159722222  6.123046875 3.673828125  C 5.09223090277778 4.27582465277778  4.27582465277778 5.09223090277778  3.673828125 6.123046875  C 3.07183159722222 7.15386284722222  2.77083333333333 8.27951388888889  2.77083333333333 9.5  C 2.77083333333333 10.7204861111111  3.07183159722222 11.8461371527778  3.673828125 12.876953125  C 4.27582465277778 13.9077690972222  5.09223090277778 14.7241753472222  6.123046875 15.326171875  C 7.15386284722222 15.9281684027778  8.27951388888889 16.2291666666667  9.5 16.2291666666667  C 10.7204861111111 16.2291666666667  11.8461371527778 15.9281684027778  12.876953125 15.326171875  C 13.9077690972222 14.7241753472222  14.7241753472222 13.9077690972222  15.326171875 12.876953125  C 15.9281684027778 11.8461371527778  16.2291666666667 10.7204861111111  16.2291666666667 9.5  C 16.2291666666667 8.27951388888889  15.9281684027778 7.15386284722222  15.326171875 6.123046875  C 14.7241753472222 5.09223090277778  13.9077690972222 4.27582465277778  12.876953125 3.673828125  Z M 17.7259114583333 4.7314453125  C 18.5753038194444 6.18695746527778  19 7.77647569444444  19 9.5  C 19 11.2235243055556  18.5753038194444 12.8130425347222  17.7259114583333 14.2685546875  C 16.8765190972222 15.7240668402778  15.7240668402778 16.8765190972222  14.2685546875 17.7259114583333  C 12.8130425347222 18.5753038194444  11.2235243055556 19  9.5 19  C 7.77647569444444 19  6.18695746527778 18.5753038194444  4.7314453125 17.7259114583333  C 3.27593315972222 16.8765190972222  2.12348090277778 15.7240668402778  1.27408854166667 14.2685546875  C 0.424696180555555 12.8130425347222  0 11.2235243055556  0 9.5  C 0 7.77647569444444  0.424696180555555 6.18695746527778  1.27408854166667 4.7314453125  C 2.12348090277778 3.27593315972222  3.27593315972222 2.12348090277778  4.7314453125 1.27408854166667  C 6.18695746527778 0.424696180555554  7.77647569444444 0  9.5 0  C 11.2235243055556 0  12.8130425347222 0.424696180555554  14.2685546875 1.27408854166667  C 15.7240668402778 2.12348090277778  16.8765190972222 3.27593315972222  17.7259114583333 4.7314453125  Z " fill-rule="nonzero" fill="#aaaaaa" stroke="none" transform="matrix(1 0 0 1 585 124 )" />
  </g>
</svg>