<?xml version="1.0" encoding="utf-8"?>
<svg version="1.1" xmlns:xlink="http://www.w3.org/1999/xlink" width="14px" height="14px" xmlns="http://www.w3.org/2000/svg">
  <g transform="matrix(1 0 0 1 -68 -491 )">
    <path d="M 5.91536458333333 3.58203125  C 5.86067708333333 3.63671875  5.83333333333333 3.70659722222222  5.83333333333333 3.79166666666667  L 5.83333333333333 7.875  C 5.83333333333333 7.96006944444444  5.86067708333333 8.02994791666667  5.91536458333333 8.08463541666667  C 5.97005208333333 8.13932291666667  6.03993055555555 8.16666666666667  6.125 8.16666666666667  L 9.04166666666667 8.16666666666667  C 9.12673611111111 8.16666666666667  9.19661458333333 8.13932291666667  9.25130208333333 8.08463541666667  C 9.30598958333333 8.02994791666667  9.33333333333333 7.96006944444444  9.33333333333333 7.875  L 9.33333333333333 7.29166666666667  C 9.33333333333333 7.20659722222222  9.30598958333333 7.13671875  9.25130208333333 7.08203125  C 9.19661458333333 7.02734375  9.12673611111111 7  9.04166666666667 7  L 7 7  L 7 3.79166666666667  C 7 3.70659722222222  6.97265625 3.63671875  6.91796875 3.58203125  C 6.86328125 3.52734375  6.79340277777778 3.5  6.70833333333333 3.5  L 6.125 3.5  C 6.03993055555555 3.5  5.97005208333333 3.52734375  5.91536458333333 3.58203125  Z M 2.70703125 9.48828125  C 2.26345486111111 8.72873263888889  2.04166666666667 7.89930555555556  2.04166666666667 7  C 2.04166666666667 6.10069444444444  2.26345486111111 5.27126736111111  2.70703125 4.51171875  C 3.15060763888889 3.75217013888889  3.75217013888889 3.15060763888889  4.51171875 2.70703125  C 5.27126736111111 2.26345486111111  6.10069444444444 2.04166666666667  7 2.04166666666667  C 7.89930555555556 2.04166666666667  8.72873263888889 2.26345486111111  9.48828125 2.70703125  C 10.2478298611111 3.15060763888889  10.8493923611111 3.75217013888889  11.29296875 4.51171875  C 11.7365451388889 5.27126736111111  11.9583333333333 6.10069444444444  11.9583333333333 7  C 11.9583333333333 7.89930555555556  11.7365451388889 8.72873263888889  11.29296875 9.48828125  C 10.8493923611111 10.2478298611111  10.2478298611111 10.8493923611111  9.48828125 11.29296875  C 8.72873263888889 11.7365451388889  7.89930555555556 11.9583333333333  7 11.9583333333333  C 6.10069444444444 11.9583333333333  5.27126736111111 11.7365451388889  4.51171875 11.29296875  C 3.75217013888889 10.8493923611111  3.15060763888889 10.2478298611111  2.70703125 9.48828125  Z M 0.938802083333333 3.486328125  C 0.31293402777778 4.55881076388889  0 5.73003472222222  0 7  C 0 8.26996527777778  0.31293402777778 9.44118923611111  0.938802083333333 10.513671875  C 1.56467013888889 11.5861545138889  2.41384548611111 12.4353298611111  3.486328125 13.0611979166667  C 4.55881076388889 13.6870659722222  5.73003472222222 14  7 14  C 8.26996527777778 14  9.44118923611111 13.6870659722222  10.513671875 13.0611979166667  C 11.5861545138889 12.4353298611111  12.4353298611111 11.5861545138889  13.0611979166667 10.513671875  C 13.6870659722222 9.44118923611111  14 8.26996527777778  14 7  C 14 5.73003472222222  13.6870659722222 4.55881076388889  13.0611979166667 3.486328125  C 12.4353298611111 2.41384548611111  11.5861545138889 1.56467013888889  10.513671875 0.938802083333333  C 9.44118923611111 0.312934027777777  8.26996527777778 0  7 0  C 5.73003472222222 0  4.55881076388889 0.312934027777777  3.486328125 0.938802083333333  C 2.41384548611111 1.56467013888889  1.56467013888889 2.41384548611111  0.938802083333333 3.486328125  Z " fill-rule="nonzero" fill="#dcdfe6" stroke="none" transform="matrix(1 0 0 1 68 491 )" />
  </g>
</svg>