<?xml version="1.0" encoding="utf-8"?>
<svg version="1.1" xmlns:xlink="http://www.w3.org/1999/xlink" width="13px" height="3px" xmlns="http://www.w3.org/2000/svg">
  <g transform="matrix(1 0 0 1 -70 -125 )">
    <path d="M 12.7414772727273 0.21875  C 12.9138257575758 0.364583333333332  13 0.541666666666666  13 0.75  L 13 2.25  C 13 2.45833333333333  12.9138257575758 2.63541666666667  12.7414772727273 2.78125  C 12.5691287878788 2.92708333333333  12.3598484848485 3  12.1136363636364 3  L 0.886363636363636 3  C 0.640151515151515 3  0.430871212121212 2.92708333333333  0.258522727272727 2.78125  C 0.0861742424242424 2.63541666666667  0 2.45833333333333  0 2.25  L 0 0.75  C 0 0.541666666666666  0.0861742424242424 0.364583333333332  0.258522727272727 0.21875  C 0.430871212121212 0.0729166666666661  0.640151515151515 0  0.886363636363636 0  L 12.1136363636364 0  C 12.3598484848485 0  12.5691287878788 0.0729166666666661  12.7414772727273 0.21875  Z " fill-rule="nonzero" fill="#409eff" stroke="none" transform="matrix(1 0 0 1 70 125 )" />
  </g>
</svg>