<?xml version="1.0" encoding="utf-8"?>
<svg version="1.1" xmlns:xlink="http://www.w3.org/1999/xlink" width="9px" height="16px" xmlns="http://www.w3.org/2000/svg">
  <g transform="matrix(1 0 0 1 -174 -991 )">
    <path d="M 5.162109375 15.10625  C 5.345703125 14.9104166666667  5.4375 14.675  5.4375 14.4  C 5.4375 14.125  5.345703125 13.8895833333333  5.162109375 13.69375  C 4.978515625 13.4979166666667  4.7578125 13.4  4.5 13.4  C 4.2421875 13.4  4.021484375 13.4979166666667  3.837890625 13.69375  C 3.654296875 13.8895833333333  3.5625 14.125  3.5625 14.4  C 3.5625 14.675  3.654296875 14.9104166666667  3.837890625 15.10625  C 4.021484375 15.3020833333333  4.2421875 15.4  4.5 15.4  C 4.7578125 15.4  4.978515625 15.3020833333333  5.162109375 15.10625  Z M 7.763671875 12.68125  C 7.837890625 12.6020833333333  7.875 12.5083333333333  7.875 12.4  L 7.875 3.6  C 7.875 3.49166666666667  7.837890625 3.39791666666667  7.763671875 3.31875  C 7.689453125 3.23958333333333  7.6015625 3.2  7.5 3.2  L 1.5 3.2  C 1.3984375 3.2  1.310546875 3.23958333333333  1.236328125 3.31875  C 1.162109375 3.39791666666667  1.125 3.49166666666667  1.125 3.6  L 1.125 12.4  C 1.125 12.5083333333333  1.162109375 12.6020833333333  1.236328125 12.68125  C 1.310546875 12.7604166666667  1.3984375 12.8  1.5 12.8  L 7.5 12.8  C 7.6015625 12.8  7.689453125 12.7604166666667  7.763671875 12.68125  Z M 5.4375 2  C 5.5625 2  5.625 1.93333333333333  5.625 1.8  C 5.625 1.66666666666667  5.5625 1.6  5.4375 1.6  L 3.5625 1.6  C 3.4375 1.6  3.375 1.66666666666667  3.375 1.8  C 3.375 1.93333333333333  3.4375 2  3.5625 2  L 5.4375 2  Z M 8.5546875 0.475  C 8.8515625 0.791666666666666  9 1.16666666666667  9 1.6  L 9 14.4  C 9 14.8333333333333  8.8515625 15.2083333333333  8.5546875 15.525  C 8.2578125 15.8416666666667  7.90625 16  7.5 16  L 1.5 16  C 1.09375 16  0.7421875 15.8416666666667  0.4453125 15.525  C 0.1484375 15.2083333333333  0 14.8333333333333  0 14.4  L 0 1.6  C 0 1.16666666666667  0.1484375 0.791666666666666  0.4453125 0.475  C 0.7421875 0.158333333333331  1.09375 0  1.5 0  L 7.5 0  C 7.90625 0  8.2578125 0.158333333333331  8.5546875 0.475  Z " fill-rule="nonzero" fill="#000000" stroke="none" transform="matrix(1 0 0 1 174 991 )" />
  </g>
</svg>