<?xml version="1.0" encoding="utf-8"?>
<svg version="1.1" xmlns:xlink="http://www.w3.org/1999/xlink" width="16px" height="16px" xmlns="http://www.w3.org/2000/svg">
  <defs>
    <mask fill="white" id="clip46">
      <path d="M 15.4615384615385 5.73660995589162  C 15.8205128205128 5.79710144927536  16 5.95169082125604  16 6.20037807183365  C 16 6.34824616677169  15.9166666666667 6.509556815795  15.75 6.68431001890359  L 12.2596153846154 10.2533081285444  L 13.0865384615385 15.294265910523  C 13.0929487179487 15.3413148498215  13.0961538461538 15.4085276202478  13.0961538461538 15.4959042218021  C 13.0961538461538 15.6370510396975  13.0625 15.7563537072044  12.9951923076923 15.8538122243226  C 12.9278846153846 15.9512707414409  12.8301282051282 16  12.7019230769231 16  C 12.5801282051282 16  12.4519230769231 15.9596723377442  12.3173076923077 15.8790170132325  L 8 13.4996849401386  L 3.68269230769231 15.8790170132325  C 3.54166666666667 15.9596723377442  3.41346153846154 16  3.29807692307692 16  C 3.16346153846154 16  3.0625 15.9512707414409  2.99519230769231 15.8538122243226  C 2.92788461538462 15.7563537072044  2.89423076923077 15.6370510396975  2.89423076923077 15.4959042218021  C 2.89423076923077 15.4555765595463  2.90064102564103 15.3883637891199  2.91346153846154 15.294265910523  L 3.74038461538462 10.2533081285444  L 0.240384615384615 6.68431001890359  C 0.0801282051282051 6.50283553875236  0 6.34152488972905  0 6.20037807183365  C 0 5.95169082125604  0.179487179487179 5.79710144927536  0.538461538461538 5.73660995589162  L 5.36538461538462 5.00063011972275  L 7.52884615384615 0.413358538122242  C 7.65064102564103 0.13778617937408  7.80769230769231 0  8 0  C 8.19230769230769 0  8.34935897435897 0.13778617937408  8.47115384615385 0.413358538122242  L 10.6346153846154 5.00063011972275  L 15.4615384615385 5.73660995589162  Z " fill-rule="evenodd" />
    </mask>
  </defs>
  <g transform="matrix(1 0 0 1 -85 -1 )">
    <path d="M 15.4615384615385 5.73660995589162  C 15.8205128205128 5.79710144927536  16 5.95169082125604  16 6.20037807183365  C 16 6.34824616677169  15.9166666666667 6.509556815795  15.75 6.68431001890359  L 12.2596153846154 10.2533081285444  L 13.0865384615385 15.294265910523  C 13.0929487179487 15.3413148498215  13.0961538461538 15.4085276202478  13.0961538461538 15.4959042218021  C 13.0961538461538 15.6370510396975  13.0625 15.7563537072044  12.9951923076923 15.8538122243226  C 12.9278846153846 15.9512707414409  12.8301282051282 16  12.7019230769231 16  C 12.5801282051282 16  12.4519230769231 15.9596723377442  12.3173076923077 15.8790170132325  L 8 13.4996849401386  L 3.68269230769231 15.8790170132325  C 3.54166666666667 15.9596723377442  3.41346153846154 16  3.29807692307692 16  C 3.16346153846154 16  3.0625 15.9512707414409  2.99519230769231 15.8538122243226  C 2.92788461538462 15.7563537072044  2.89423076923077 15.6370510396975  2.89423076923077 15.4959042218021  C 2.89423076923077 15.4555765595463  2.90064102564103 15.3883637891199  2.91346153846154 15.294265910523  L 3.74038461538462 10.2533081285444  L 0.240384615384615 6.68431001890359  C 0.0801282051282051 6.50283553875236  0 6.34152488972905  0 6.20037807183365  C 0 5.95169082125604  0.179487179487179 5.79710144927536  0.538461538461538 5.73660995589162  L 5.36538461538462 5.00063011972275  L 7.52884615384615 0.413358538122242  C 7.65064102564103 0.13778617937408  7.80769230769231 0  8 0  C 8.19230769230769 0  8.34935897435897 0.13778617937408  8.47115384615385 0.413358538122242  L 10.6346153846154 5.00063011972275  L 15.4615384615385 5.73660995589162  Z " fill-rule="nonzero" fill="#ff9900" stroke="none" transform="matrix(1 0 0 1 85 1 )" />
    <path d="M 15.4615384615385 5.73660995589162  C 15.8205128205128 5.79710144927536  16 5.95169082125604  16 6.20037807183365  C 16 6.34824616677169  15.9166666666667 6.509556815795  15.75 6.68431001890359  L 12.2596153846154 10.2533081285444  L 13.0865384615385 15.294265910523  C 13.0929487179487 15.3413148498215  13.0961538461538 15.4085276202478  13.0961538461538 15.4959042218021  C 13.0961538461538 15.6370510396975  13.0625 15.7563537072044  12.9951923076923 15.8538122243226  C 12.9278846153846 15.9512707414409  12.8301282051282 16  12.7019230769231 16  C 12.5801282051282 16  12.4519230769231 15.9596723377442  12.3173076923077 15.8790170132325  L 8 13.4996849401386  L 3.68269230769231 15.8790170132325  C 3.54166666666667 15.9596723377442  3.41346153846154 16  3.29807692307692 16  C 3.16346153846154 16  3.0625 15.9512707414409  2.99519230769231 15.8538122243226  C 2.92788461538462 15.7563537072044  2.89423076923077 15.6370510396975  2.89423076923077 15.4959042218021  C 2.89423076923077 15.4555765595463  2.90064102564103 15.3883637891199  2.91346153846154 15.294265910523  L 3.74038461538462 10.2533081285444  L 0.240384615384615 6.68431001890359  C 0.0801282051282051 6.50283553875236  0 6.34152488972905  0 6.20037807183365  C 0 5.95169082125604  0.179487179487179 5.79710144927536  0.538461538461538 5.73660995589162  L 5.36538461538462 5.00063011972275  L 7.52884615384615 0.413358538122242  C 7.65064102564103 0.13778617937408  7.80769230769231 0  8 0  C 8.19230769230769 0  8.34935897435897 0.13778617937408  8.47115384615385 0.413358538122242  L 10.6346153846154 5.00063011972275  L 15.4615384615385 5.73660995589162  Z " stroke-width="2" stroke="#ff9900" fill="none" transform="matrix(1 0 0 1 85 1 )" mask="url(#clip46)" />
  </g>
</svg>