<?xml version="1.0" encoding="utf-8"?>
<svg version="1.1" xmlns:xlink="http://www.w3.org/1999/xlink" width="174px" height="127px" xmlns="http://www.w3.org/2000/svg">
  <defs>
    <filter x="658px" y="1857px" width="174px" height="127px" filterUnits="userSpaceOnUse" id="filter133">
      <feOffset dx="5" dy="5" in="SourceAlpha" result="shadowOffsetInner" />
      <feGaussianBlur stdDeviation="2.5" in="shadowOffsetInner" result="shadowGaussian" />
      <feComposite in2="shadowGaussian" operator="atop" in="SourceAlpha" result="shadowComposite" />
      <feColorMatrix type="matrix" values="0 0 0 0 0.933333333333333  0 0 0 0 0.933333333333333  0 0 0 0 0.933333333333333  0 0 0 0.349019607843137 0  " in="shadowComposite" />
    </filter>
    <g id="widget134">
      <path d="M 740 1857  C 785.92 1857  822 1882.74  822 1915.5  C 822 1948.26  785.92 1974  740 1974  C 694.08 1974  658 1948.26  658 1915.5  C 658 1882.74  694.08 1857  740 1857  Z " fill-rule="nonzero" fill="#409eff" stroke="none" />
      <path d="M 740 1857.5  C 785.64 1857.5  821.5 1883.02  821.5 1915.5  C 821.5 1947.98  785.64 1973.5  740 1973.5  C 694.36 1973.5  658.5 1947.98  658.5 1915.5  C 658.5 1883.02  694.36 1857.5  740 1857.5  Z " stroke-width="1" stroke="#ebeef5" fill="none" />
    </g>
  </defs>
  <g transform="matrix(1 0 0 1 -658 -1857 )">
    <use xlink:href="#widget134" filter="url(#filter133)" />
    <use xlink:href="#widget134" />
  </g>
</svg>