<?xml version="1.0" encoding="utf-8"?>
<svg version="1.1" xmlns:xlink="http://www.w3.org/1999/xlink" width="37px" height="29px" xmlns="http://www.w3.org/2000/svg">
  <defs>
    <filter x="614px" y="1857px" width="37px" height="29px" filterUnits="userSpaceOnUse" id="filter135">
      <feOffset dx="5" dy="5" in="SourceAlpha" result="shadowOffsetInner" />
      <feGaussianBlur stdDeviation="2.5" in="shadowOffsetInner" result="shadowGaussian" />
      <feComposite in2="shadowGaussian" operator="atop" in="SourceAlpha" result="shadowComposite" />
      <feColorMatrix type="matrix" values="0 0 0 0 0.933333333333333  0 0 0 0 0.933333333333333  0 0 0 0 0.933333333333333  0 0 0 0.349019607843137 0  " in="shadowComposite" />
    </filter>
    <g id="widget136">
      <path d="M 627.5 1857  C 635.06 1857  641 1861.18  641 1866.5  C 641 1871.82  635.06 1876  627.5 1876  C 619.94 1876  614 1871.82  614 1866.5  C 614 1861.18  619.94 1857  627.5 1857  Z " fill-rule="nonzero" fill="#409eff" stroke="none" />
      <path d="M 627.5 1857.5  C 634.78 1857.5  640.5 1861.46  640.5 1866.5  C 640.5 1871.54  634.78 1875.5  627.5 1875.5  C 620.22 1875.5  614.5 1871.54  614.5 1866.5  C 614.5 1861.46  620.22 1857.5  627.5 1857.5  Z " stroke-width="1" stroke="#ebeef5" fill="none" />
    </g>
  </defs>
  <g transform="matrix(1 0 0 1 -614 -1857 )">
    <use xlink:href="#widget136" filter="url(#filter135)" />
    <use xlink:href="#widget136" />
  </g>
</svg>