<?xml version="1.0" encoding="utf-8"?>
<svg version="1.1" xmlns:xlink="http://www.w3.org/1999/xlink" width="54px" height="41px" xmlns="http://www.w3.org/2000/svg">
  <defs>
    <filter x="556px" y="1811px" width="54px" height="41px" filterUnits="userSpaceOnUse" id="filter137">
      <feOffset dx="5" dy="5" in="SourceAlpha" result="shadowOffsetInner" />
      <feGaussianBlur stdDeviation="2.5" in="shadowOffsetInner" result="shadowGaussian" />
      <feComposite in2="shadowGaussian" operator="atop" in="SourceAlpha" result="shadowComposite" />
      <feColorMatrix type="matrix" values="0 0 0 0 0.933333333333333  0 0 0 0 0.933333333333333  0 0 0 0 0.933333333333333  0 0 0 0.349019607843137 0  " in="shadowComposite" />
    </filter>
    <g id="widget138">
      <path d="M 578 1811  C 590.32 1811  600 1817.82  600 1826.5  C 600 1835.18  590.32 1842  578 1842  C 565.68 1842  556 1835.18  556 1826.5  C 556 1817.82  565.68 1811  578 1811  Z " fill-rule="nonzero" fill="#409eff" stroke="none" />
      <path d="M 578 1811.5  C 590.04 1811.5  599.5 1818.1  599.5 1826.5  C 599.5 1834.9  590.04 1841.5  578 1841.5  C 565.96 1841.5  556.5 1834.9  556.5 1826.5  C 556.5 1818.1  565.96 1811.5  578 1811.5  Z " stroke-width="1" stroke="#ebeef5" fill="none" />
    </g>
  </defs>
  <g transform="matrix(1 0 0 1 -556 -1811 )">
    <use xlink:href="#widget138" filter="url(#filter137)" />
    <use xlink:href="#widget138" />
  </g>
</svg>