<?xml version="1.0" encoding="utf-8"?>
<svg version="1.1" xmlns:xlink="http://www.w3.org/1999/xlink" width="18px" height="22px" xmlns="http://www.w3.org/2000/svg">
  <g transform="matrix(1 0 0 1 -121 -674 )">
    <path d="M 15.6546854942234 5.75398603528158  C 16.0551989730424 5.75398603528158  16.405648267009 5.89563439410088  16.7060333761232 6.1789311117395  L 17.5725288831836 7.04030626672177  C 17.8575096277279 7.33891632044896  18 7.68729471646401  18 8.08544145476693  C 18 8.49124486111413  17.8575096277279 8.83579492310704  17.5725288831836 9.11909164074566  L 10.0513478818999 16.6073129880582  C 9.75096277278562 16.8906097056968  9.400513478819 17.0322580645161  9 17.0322580645161  C 8.59178433889602 17.0322580645161  8.24518613607189 16.8906097056968  7.9602053915276 16.6073129880582  L 0.439024390243902 9.11909164074566  C 0.146341463414634 8.84345159115133  0 8.49890152915842  0 8.08544145476693  C 0 7.67963804841973  0.146341463414634 7.33125965240468  0.439024390243902 7.04030626672177  L 1.29396662387677 6.1789311117395  C 1.59435173299102 5.89563439410088  1.94480102695764 5.75398603528158  2.34531450577664 5.75398603528158  C 2.75353016688062 5.75398603528158  3.10012836970476 5.89563439410088  3.38510911424904 6.1789311117395  L 6.84 9.55552171927  L 6.84 1.47008026450308  C 6.78177150192555 1.07193352620016  6.92811296534018 0.727383464207254  7.22079589216945 0.436430078524357  C 7.51347881899872 0.145476692841449  7.86007702182286 0  8.26059050064184 0  L 9.73940949935816 0  C 10.1399229781772 0  10.4865211810013 0.145476692841449  10.7792041078305 0.436430078524357  C 11.0718870346598 0.727383464207254  11.2182284980745 1.07193352620016  11.16 1.47008026450308  L 11.16 9.55552171927  L 14.614890885751 6.1789311117395  C 14.8998716302952 5.89563439410088  15.2464698331194 5.75398603528158  15.6546854942234 5.75398603528158  Z M 16.56 22  L 1.44 22  C 0.633600000000002 22  0 21.3754838709677  0 20.5806451612903  L 0 19.8709677419355  C 0 19.0761290322581  0.633600000000002 18.4516129032258  1.44 18.4516129032258  L 16.56 18.4516129032258  C 17.3664 18.4516129032258  18 19.0761290322581  18 19.8709677419355  L 18 20.5806451612903  C 18 21.3754838709677  17.3664 22  16.56 22  Z " fill-rule="nonzero" fill="#ffffff" stroke="none" transform="matrix(1 0 0 1 121 674 )" />
  </g>
</svg>