<?xml version="1.0" encoding="utf-8"?>
<svg version="1.1" xmlns:xlink="http://www.w3.org/1999/xlink" width="57px" height="42px" xmlns="http://www.w3.org/2000/svg">
  <g transform="matrix(1 0 0 1 -207 -915 )">
    <path d="M 37.71796875 22.6257102272727  C 37.9059895833333 22.4367897727273  38 22.2130681818182  38 21.9545454545455  C 38 21.6761363636364  37.9109375 21.4474431818182  37.7328125 21.2684659090909  L 27.2828125 10.7684659090909  C 27.1046875 10.5894886363636  26.8770833333333 10.5  26.6 10.5  C 26.3229166666667 10.5  26.0953125 10.5894886363636  25.9171875 10.7684659090909  L 15.496875 21.2386363636364  C 15.2989583333333 21.4772727272727  15.2 21.7159090909091  15.2 21.9545454545455  C 15.2 22.2329545454545  15.2890625 22.4616477272727  15.4671875 22.640625  C 15.6453125 22.8196022727273  15.8729166666667 22.9090909090909  16.15 22.9090909090909  L 23 22.9090909090909  L 23 33.4090909090909  C 22.8 33.6676136363636  22.8940104166667 33.8913352272727  23.08203125 34.0802556818182  C 23.2700520833333 34.2691761363636  23.4927083333333 34.3636363636364  23.75 34.3636363636364  L 29.45 34.3636363636364  C 29.7072916666667 34.3636363636364  29.9299479166667 34.2691761363636  30.11796875 34.0802556818182  C 30.3059895833333 33.8913352272727  30.4 33.6676136363636  30 33.4090909090909  L 30 22.9090909090909  L 37.05 22.9090909090909  C 37.3072916666667 22.9090909090909  37.5299479166667 22.8146306818182  37.71796875 22.6257102272727  Z M 54.52109375 23.4311079545455  C 56.1736979166667 25.5092329545455  57 27.8806818181818  57 30.5454545454545  C 57 33.7073863636364  55.88671875 36.4069602272727  53.66015625 38.6441761363636  C 51.43359375 40.8813920454545  48.746875 42  45.6 42  L 13.3 42  C 9.63854166666667 42  6.50651041666667 40.6924715909091  3.90390625 38.0774147727273  C 1.30130208333333 35.4623579545455  0 32.3153409090909  0 28.6363636363636  C 0 26.0511363636364  0.692708333333333 23.6647727272727  2.078125 21.4772727272727  C 3.46354166666667 19.2897727272727  5.32395833333333 17.6491477272727  7.659375 16.5553977272727  C 7.61979166666667 15.9588068181818  7.6 15.53125  7.6 15.2727272727273  C 7.6 11.0568181818182  9.084375 7.45738636363637  12.053125 4.47443181818182  C 15.021875 1.49147727272727  18.6041666666667 0  22.8 0  C 25.8875 0  28.7127604166667 0.865056818181819  31.27578125 2.59517045454545  C 33.8388020833333 4.32528409090909  35.7041666666667 6.62215909090909  36.871875 9.48579545454545  C 38.2770833333333 8.25284090909091  39.9197916666667 7.63636363636363  41.8 7.63636363636363  C 43.8979166666667 7.63636363636363  45.6890625 8.38210227272727  47.1734375 9.87357954545455  C 48.6578125 11.3650568181818  49.4 13.1647727272727  49.4 15.2727272727273  C 49.4 16.7840909090909  48.9942708333333 18.15625  48.1828125 19.3892045454545  C 50.7557291666667 20.0056818181818  52.8684895833333 21.3529829545455  54.52109375 23.4311079545455  Z " fill-rule="nonzero" fill="#c0c4cc" stroke="none" transform="matrix(1 0 0 1 207 915 )" />
  </g>
</svg>