<?xml version="1.0" encoding="utf-8"?>
<svg version="1.1" xmlns:xlink="http://www.w3.org/1999/xlink" width="37px" height="29px" xmlns="http://www.w3.org/2000/svg">
  <defs>
    <filter x="614px" y="1797px" width="37px" height="29px" filterUnits="userSpaceOnUse" id="filter89">
      <feOffset dx="5" dy="5" in="SourceAlpha" result="shadowOffsetInner" />
      <feGaussianBlur stdDeviation="2.5" in="shadowOffsetInner" result="shadowGaussian" />
      <feComposite in2="shadowGaussian" operator="atop" in="SourceAlpha" result="shadowComposite" />
      <feColorMatrix type="matrix" values="0 0 0 0 0.933333333333333  0 0 0 0 0.933333333333333  0 0 0 0 0.933333333333333  0 0 0 0.349019607843137 0  " in="shadowComposite" />
    </filter>
    <g id="widget90">
      <path d="M 627.5 1797  C 635.06 1797  641 1801.18  641 1806.5  C 641 1811.82  635.06 1816  627.5 1816  C 619.94 1816  614 1811.82  614 1806.5  C 614 1801.18  619.94 1797  627.5 1797  Z " fill-rule="nonzero" fill="#409eff" stroke="none" />
      <path d="M 627.5 1797.5  C 634.78 1797.5  640.5 1801.46  640.5 1806.5  C 640.5 1811.54  634.78 1815.5  627.5 1815.5  C 620.22 1815.5  614.5 1811.54  614.5 1806.5  C 614.5 1801.46  620.22 1797.5  627.5 1797.5  Z " stroke-width="1" stroke="#ebeef5" fill="none" />
    </g>
  </defs>
  <g transform="matrix(1 0 0 1 -614 -1797 )">
    <use xlink:href="#widget90" filter="url(#filter89)" />
    <use xlink:href="#widget90" />
  </g>
</svg>