<?xml version="1.0" encoding="utf-8"?>
<svg version="1.1" xmlns:xlink="http://www.w3.org/1999/xlink" width="8px" height="13px" xmlns="http://www.w3.org/2000/svg">
  <g transform="matrix(1 0 0 1 -915 -127 )">
    <path d="M 8 6.5  C 8 6.63978494623656  7.95109395109395 6.76075268817204  7.85328185328185 6.86290322580645  L 2.12355212355212 12.8467741935484  C 2.02574002574003 12.9489247311828  1.90990990990991 13  1.77606177606178 13  C 1.64221364221364 13  1.52638352638353 12.9489247311828  1.42857142857143 12.8467741935484  L 0.146718146718147 11.508064516129  C 0.048906048906049 11.4059139784946  0 11.2849462365591  0 11.1451612903226  C 0 11.005376344086  0.048906048906049 10.8844086021505  0.146718146718147 10.7822580645161  L 4.24710424710425 6.5  L 0.146718146718147 2.21774193548387  C 0.048906048906049 2.11559139784946  0 1.99462365591398  0 1.85483870967742  C 0 1.71505376344086  0.048906048906049 1.59408602150538  0.146718146718147 1.49193548387097  L 1.42857142857143 0.153225806451613  C 1.52638352638353 0.0510752688172037  1.64221364221364 0  1.77606177606178 0  C 1.90990990990991 0  2.02574002574003 0.0510752688172037  2.12355212355212 0.153225806451613  L 7.85328185328185 6.13709677419355  C 7.95109395109395 6.23924731182796  8 6.36021505376344  8 6.5  Z " fill-rule="nonzero" fill="#303133" stroke="none" transform="matrix(1 0 0 1 915 127 )" />
  </g>
</svg>