<?xml version="1.0" encoding="utf-8"?>
<svg version="1.1" xmlns:xlink="http://www.w3.org/1999/xlink" width="14px" height="15px" xmlns="http://www.w3.org/2000/svg">
  <g transform="matrix(1 0 0 1 -242 -123 )">
    <path d="M 5.71014492753623 13.4068136272545  C 5.61352657004831 13.5070140280561  5.56521739130435 13.622244488978  5.56521739130435 13.75250501002  C 5.56521739130435 13.8827655310621  5.61352657004831 13.997995991984  5.71014492753623 14.0981963927856  L 6.43478260869565 14.8496993987976  C 6.53140096618357 14.9498997995992  6.64251207729468 15  6.76811594202899 15  C 6.89371980676328 15  7.0048309178744 14.9498997995992  7.10144927536232 14.8496993987976  L 13.8550724637681 7.84569138276553  C 13.951690821256 7.74549098196393  14 7.63026052104208  14 7.5  C 14 7.36973947895792  13.951690821256 7.25450901803607  13.8550724637681 7.15430861723447  L 7.10144927536232 0.150300601202405  C 7.0048309178744 0.0501002004008011  6.89371980676328 0  6.76811594202899 0  C 6.64251207729468 0  6.53140096618357 0.0501002004008011  6.43478260869565 0.150300601202405  L 5.71014492753623 0.901803607214428  C 5.61352657004831 1.00200400801603  5.56521739130435 1.11723446893787  5.56521739130435 1.24749498997996  C 5.56521739130435 1.37775551102204  5.61352657004831 1.49298597194389  5.71014492753623 1.59318637274549  L 11.4057971014493 7.5  L 5.71014492753623 13.4068136272545  Z M 0.144927536231884 13.4068136272545  C 0.0483091787439602 13.5070140280561  0 13.622244488978  0 13.75250501002  C 0 13.8827655310621  0.0483091787439602 13.997995991984  0.144927536231884 14.0981963927856  L 0.869565217391304 14.8496993987976  C 0.966183574879226 14.9498997995992  1.07729468599034 15  1.20289855072464 15  C 1.32850241545893 15  1.43961352657005 14.9498997995992  1.53623188405797 14.8496993987976  L 8.28985507246377 7.84569138276553  C 8.38647342995169 7.74549098196393  8.43478260869565 7.63026052104208  8.43478260869565 7.5  C 8.43478260869565 7.36973947895792  8.38647342995169 7.25450901803607  8.28985507246377 7.15430861723447  L 1.53623188405797 0.150300601202405  C 1.43961352657005 0.0501002004008011  1.32850241545893 0  1.20289855072464 0  C 1.07729468599034 0  0.966183574879226 0.0501002004008011  0.869565217391304 0.150300601202405  L 0.144927536231884 0.901803607214428  C 0.0483091787439602 1.00200400801603  0 1.11723446893787  0 1.24749498997996  C 0 1.37775551102204  0.0483091787439602 1.49298597194389  0.144927536231884 1.59318637274549  L 5.84057971014493 7.5  L 0.144927536231884 13.4068136272545  Z " fill-rule="nonzero" fill="#50a6ff" stroke="none" transform="matrix(1 0 0 1 242 123 )" />
  </g>
</svg>