<?xml version="1.0" encoding="utf-8"?>
<svg version="1.1" xmlns:xlink="http://www.w3.org/1999/xlink" width="14px" height="15px" xmlns="http://www.w3.org/2000/svg">
  <g transform="matrix(1 0 0 1 -128 -122 )">
    <path d="M 8.28985507246377 13.4068136272545  C 8.38647342995169 13.5070140280561  8.43478260869565 13.622244488978  8.43478260869565 13.75250501002  C 8.43478260869565 13.8827655310621  8.38647342995169 13.997995991984  8.28985507246377 14.0981963927856  L 7.56521739130435 14.8496993987976  C 7.46859903381643 14.9498997995992  7.35748792270532 15  7.23188405797101 15  C 7.10628019323672 15  6.9951690821256 14.9498997995992  6.89855072463768 14.8496993987976  L 0.144927536231884 7.84569138276553  C 0.0483091787439614 7.74549098196393  0 7.63026052104208  0 7.5  C 0 7.36973947895792  0.0483091787439614 7.25450901803607  0.144927536231884 7.15430861723447  L 6.89855072463768 0.150300601202405  C 6.9951690821256 0.0501002004008011  7.10628019323672 0  7.23188405797101 0  C 7.35748792270532 0  7.46859903381643 0.0501002004008011  7.56521739130435 0.150300601202405  L 8.28985507246377 0.901803607214428  C 8.38647342995169 1.00200400801603  8.43478260869565 1.11723446893787  8.43478260869565 1.24749498997996  C 8.43478260869565 1.37775551102204  8.38647342995169 1.49298597194389  8.28985507246377 1.59318637274549  L 2.59420289855072 7.5  L 8.28985507246377 13.4068136272545  Z M 13.8550724637681 13.4068136272545  C 13.951690821256 13.5070140280561  14 13.622244488978  14 13.75250501002  C 14 13.8827655310621  13.951690821256 13.997995991984  13.8550724637681 14.0981963927856  L 13.1304347826087 14.8496993987976  C 13.0338164251208 14.9498997995992  12.9227053140097 15  12.7971014492754 15  C 12.6714975845411 15  12.56038647343 14.9498997995992  12.463768115942 14.8496993987976  L 5.71014492753623 7.84569138276553  C 5.61352657004831 7.74549098196393  5.56521739130435 7.63026052104208  5.56521739130435 7.5  C 5.56521739130435 7.36973947895792  5.61352657004831 7.25450901803607  5.71014492753623 7.15430861723447  L 12.463768115942 0.150300601202405  C 12.56038647343 0.0501002004008011  12.6714975845411 0  12.7971014492754 0  C 12.9227053140097 0  13.0338164251208 0.0501002004008011  13.1304347826087 0.150300601202405  L 13.8550724637681 0.901803607214428  C 13.951690821256 1.00200400801603  14 1.11723446893787  14 1.24749498997996  C 14 1.37775551102204  13.951690821256 1.49298597194389  13.8550724637681 1.59318637274549  L 8.15942028985507 7.5  L 13.8550724637681 13.4068136272545  Z " fill-rule="nonzero" fill="#50a6ff" stroke="none" transform="matrix(1 0 0 1 128 122 )" />
  </g>
</svg>