<?xml version="1.0" encoding="utf-8"?>
<svg version="1.1" xmlns:xlink="http://www.w3.org/1999/xlink" width="8px" height="2px" xmlns="http://www.w3.org/2000/svg">
  <g transform="matrix(1 0 0 1 -69 -504 )">
    <path d="M 7.84090909090909 0.145833333333333  C 7.9469696969697 0.243055555555555  8 0.361111111111111  8 0.5  L 8 1.5  C 8 1.63888888888889  7.9469696969697 1.75694444444444  7.84090909090909 1.85416666666667  C 7.73484848484849 1.95138888888889  7.60606060606061 2  7.45454545454545 2  L 0.545454545454545 2  C 0.393939393939394 2  0.265151515151515 1.95138888888889  0.159090909090909 1.85416666666667  C 0.053030303030303 1.75694444444444  0 1.63888888888889  0 1.5  L 0 0.5  C 0 0.361111111111111  0.053030303030303 0.243055555555555  0.159090909090909 0.145833333333333  C 0.265151515151515 0.0486111111111107  0.393939393939394 0  0.545454545454545 0  L 7.45454545454545 0  C 7.60606060606061 0  7.73484848484849 0.0486111111111107  7.84090909090909 0.145833333333333  Z " fill-rule="nonzero" fill="#ffffff" stroke="none" transform="matrix(1 0 0 1 69 504 )" />
  </g>
</svg>