<?xml version="1.0" encoding="utf-8"?>
<svg version="1.1" xmlns:xlink="http://www.w3.org/1999/xlink" width="424px" height="278px" xmlns="http://www.w3.org/2000/svg">
  <defs>
    <mask fill="white" id="clip20">
      <path d="M 18 264  L 18 148.034550209951  L 0 135  L 18 121.965159787801  L 18 4  C 18 1.76  19.76 0  22 0  L 410 0  C 412.24 0  414 1.76  414 4  L 414 264  C 414 266.24  412.24 268  410 268  L 22 268  C 19.76 268  18 266.24  18 264  Z " fill-rule="evenodd" />
    </mask>
    <filter x="162px" y="1111px" width="424px" height="278px" filterUnits="userSpaceOnUse" id="filter21">
      <feOffset dx="5" dy="5" in="SourceAlpha" result="shadowOffsetInner" />
      <feGaussianBlur stdDeviation="2.5" in="shadowOffsetInner" result="shadowGaussian" />
      <feComposite in2="shadowGaussian" operator="atop" in="SourceAlpha" result="shadowComposite" />
      <feColorMatrix type="matrix" values="0 0 0 0 0.933333333333333  0 0 0 0 0.933333333333333  0 0 0 0 0.933333333333333  0 0 0 0.349019607843137 0  " in="shadowComposite" />
    </filter>
    <g id="widget22">
      <path d="M 18 264  L 18 148.034550209951  L 0 135  L 18 121.965159787801  L 18 4  C 18 1.76  19.76 0  22 0  L 410 0  C 412.24 0  414 1.76  414 4  L 414 264  C 414 266.24  412.24 268  410 268  L 22 268  C 19.76 268  18 266.24  18 264  Z " fill-rule="nonzero" fill="#ffffff" stroke="none" transform="matrix(1 0 0 1 162 1111 )" />
      <path d="M 18 264  L 18 148.034550209951  L 0 135  L 18 121.965159787801  L 18 4  C 18 1.76  19.76 0  22 0  L 410 0  C 412.24 0  414 1.76  414 4  L 414 264  C 414 266.24  412.24 268  410 268  L 22 268  C 19.76 268  18 266.24  18 264  Z " stroke-width="2" stroke="#ebeef5" fill="none" transform="matrix(1 0 0 1 162 1111 )" mask="url(#clip20)" />
    </g>
  </defs>
  <g transform="matrix(1 0 0 1 -162 -1111 )">
    <use xlink:href="#widget22" filter="url(#filter21)" />
    <use xlink:href="#widget22" />
  </g>
</svg>