<?xml version="1.0" encoding="utf-8"?>
<svg version="1.1" xmlns:xlink="http://www.w3.org/1999/xlink" width="14px" height="14px" xmlns="http://www.w3.org/2000/svg">
  <g transform="matrix(1 0 0 1 -81 -302 )">
    <path d="M 7 0  C 8.26996527777777 0  9.44118923611111 0.312934027777773  10.513671875 0.938802083333333  C 11.5861545138889 1.56467013888889  12.4353298611111 2.41384548611111  13.0611979166667 3.486328125  C 13.6870659722222 4.55881076388889  14 5.73003472222223  14 7  C 14 8.26996527777777  13.6870659722222 9.44118923611111  13.0611979166667 10.513671875  C 12.4353298611111 11.5861545138889  11.5861545138889 12.4353298611111  10.513671875 13.0611979166667  C 9.44118923611111 13.6870659722222  8.26996527777777 14  7 14  C 5.73003472222223 14  4.55881076388889 13.6870659722222  3.486328125 13.0611979166667  C 2.41384548611111 12.4353298611111  1.56467013888889 11.5861545138889  0.938802083333333 10.513671875  C 0.312934027777773 9.44118923611111  0 8.26996527777777  0 7  C 0 5.73003472222223  0.312934027777773 4.55881076388889  0.938802083333333 3.486328125  C 1.56467013888889 2.41384548611111  2.41384548611111 1.56467013888889  3.486328125 0.938802083333333  C 4.55881076388889 0.312934027777773  5.73003472222223 0  7 0  Z M 10.2631544200172 8.62903545256486  L 8.49686406549151 6.86274509803922  L 10.2631544200172 5.09645474351357  C 10.3752998393521 4.9843093241786  10.4313725490196 4.84813274355758  10.4313725490196 4.68792500165048  C 10.4313725490196 4.5277172597434  10.3752998393521 4.39154067912238  10.2631544200172 4.27939525978741  L 9.44609493629102 3.46233577606127  C 9.33394951695605 3.3501903567263  9.19777293633503 3.29411764705882  9.03756519442795 3.29411764705882  C 8.87735745252085 3.29411764705882  8.74118087189983 3.3501903567263  8.62903545256486 3.46233577606127  L 6.86274509803922 5.22862613058691  L 5.09645474351357 3.46233577606127  C 4.9843093241786 3.3501903567263  4.84813274355758 3.29411764705882  4.68792500165048 3.29411764705882  C 4.5277172597434 3.29411764705882  4.39154067912238 3.3501903567263  4.27939525978741 3.46233577606127  L 3.46233577606127 4.27939525978741  C 3.3501903567263 4.39154067912238  3.29411764705882 4.5277172597434  3.29411764705882 4.68792500165048  C 3.29411764705882 4.84813274355758  3.3501903567263 4.9843093241786  3.46233577606127 5.09645474351357  L 5.22862613058691 6.86274509803922  L 3.46233577606127 8.62903545256486  C 3.3501903567263 8.74118087189983  3.29411764705882 8.87735745252085  3.29411764705882 9.03756519442795  C 3.29411764705882 9.19777293633503  3.3501903567263 9.33394951695605  3.46233577606127 9.44609493629102  L 4.27939525978741 10.2631544200172  C 4.39154067912238 10.3752998393521  4.5277172597434 10.4313725490196  4.68792500165048 10.4313725490196  C 4.84813274355758 10.4313725490196  4.9843093241786 10.3752998393521  5.09645474351357 10.2631544200172  L 6.86274509803922 8.49686406549151  L 8.62903545256486 10.2631544200172  C 8.74118087189983 10.3752998393521  8.87735745252085 10.4313725490196  9.03756519442795 10.4313725490196  C 9.19777293633503 10.4313725490196  9.33394951695605 10.3752998393521  9.44609493629102 10.2631544200172  L 10.2631544200172 9.44609493629102  C 10.3752998393521 9.33394951695605  10.4313725490196 9.19777293633503  10.4313725490196 9.03756519442795  C 10.4313725490196 8.87735745252085  10.3752998393521 8.74118087189983  10.2631544200172 8.62903545256486  Z " fill-rule="nonzero" fill="#f56c6c" stroke="none" transform="matrix(1 0 0 1 81 302 )" />
  </g>
</svg>