<?xml version="1.0" encoding="utf-8"?>
<svg version="1.1" xmlns:xlink="http://www.w3.org/1999/xlink" width="250px" height="126px" xmlns="http://www.w3.org/2000/svg">
  <defs>
    <mask fill="white" id="clip201">
      <path d="M 4 16  L 109.119917596805 16  L 120 0  L 130.88026112589 16  L 236 16  C 238.24 16  240 17.76  240 20  L 240 112  C 240 114.24  238.24 116  236 116  L 4 116  C 1.75999999999999 116  0 114.24  0 112  L 0 20  C 0 17.76  1.75999999999999 16  4 16  Z " fill-rule="evenodd" />
    </mask>
    <filter x="55px" y="838px" width="250px" height="126px" filterUnits="userSpaceOnUse" id="filter202">
      <feOffset dx="5" dy="5" in="SourceAlpha" result="shadowOffsetInner" />
      <feGaussianBlur stdDeviation="2.5" in="shadowOffsetInner" result="shadowGaussian" />
      <feComposite in2="shadowGaussian" operator="atop" in="SourceAlpha" result="shadowComposite" />
      <feColorMatrix type="matrix" values="0 0 0 0 0.933333333333333  0 0 0 0 0.933333333333333  0 0 0 0 0.933333333333333  0 0 0 0.349019607843137 0  " in="shadowComposite" />
    </filter>
    <g id="widget203">
      <path d="M 4 16  L 109.119917596805 16  L 120 0  L 130.88026112589 16  L 236 16  C 238.24 16  240 17.76  240 20  L 240 112  C 240 114.24  238.24 116  236 116  L 4 116  C 1.75999999999999 116  0 114.24  0 112  L 0 20  C 0 17.76  1.75999999999999 16  4 16  Z " fill-rule="nonzero" fill="#ffffff" stroke="none" transform="matrix(1 0 0 1 55 838 )" />
      <path d="M 4 16  L 109.119917596805 16  L 120 0  L 130.88026112589 16  L 236 16  C 238.24 16  240 17.76  240 20  L 240 112  C 240 114.24  238.24 116  236 116  L 4 116  C 1.75999999999999 116  0 114.24  0 112  L 0 20  C 0 17.76  1.75999999999999 16  4 16  Z " stroke-width="2" stroke="#ebeef5" fill="none" transform="matrix(1 0 0 1 55 838 )" mask="url(#clip201)" />
    </g>
  </defs>
  <g transform="matrix(1 0 0 1 -55 -838 )">
    <use xlink:href="#widget203" filter="url(#filter202)" />
    <use xlink:href="#widget203" />
  </g>
</svg>