<?xml version="1.0" encoding="utf-8"?>
<svg version="1.1" xmlns:xlink="http://www.w3.org/1999/xlink" width="126px" height="121px" xmlns="http://www.w3.org/2000/svg">
  <g transform="matrix(1 0 0 1 -73 -781 )">
    <path d="M 19.1892495445711 107.263023240676  L 18.9522727852327 107.500000000015  L 18.4967209601348 107.955551824272  C 7.02243614505591 96.599302723946  0 80.7572562908443  0 63  C 0 27.72  27.72 0  63 0  C 98.28 0  126 27.72  126 63  C 126 80.4979959463858  119.18112551924 96.1362988525642  108.047727214753 107.5  L 103.804999357858 103.257272143105  C 89.3710741446265 117.691308845887  69.6625522431443 122.894828080902  51.4255840381525 118.867852629213  C 55.1540943316701 119.610866959313  59.0239835693777 120  63 120  C 94.92 120  120 94.92  120 63  C 120 31.08  94.92 6  63 6  C 31.08 6  6 31.08  6 63  C 6 79.0772563923887  12.3624684572427 93.4192941146203  22.7567824541233 103.695490331124  L 19.1892495445711 107.263023240676  Z " fill-rule="nonzero" fill="#e5e9f2" stroke="none" transform="matrix(1 0 0 1 73 781 )" />
  </g>
</svg>