<?xml version="1.0" encoding="utf-8"?>
<svg version="1.1" xmlns:xlink="http://www.w3.org/1999/xlink" width="69px" height="41px" xmlns="http://www.w3.org/2000/svg">
  <g transform="matrix(1 0 0 1 -258 -281 )">
    <path d="M 0 0.5  L 0 39.5  L 64 39.5  C 65.96 39.5  67.5 37.96  67.5 36  L 67.5 4  C 67.5 2.04  65.96 0.5  64 0.5  L 0 0.5  Z " fill-rule="nonzero" fill="#ffffff" stroke="none" transform="matrix(1 0 0 1 258 281 )" />
    <path d="M 0 39.5  L 64 39.5  C 65.96 39.5  67.5 37.96  67.5 36  L 67.5 4  C 67.5 2.04  65.96 0.5  64 0.5  L 0 0.5  " stroke-width="1" stroke="#ebeef5" fill="none" transform="matrix(1 0 0 1 258 281 )" />
  </g>
</svg>