<?xml version="1.0" encoding="utf-8"?>
<svg version="1.1" xmlns:xlink="http://www.w3.org/1999/xlink" width="40px" height="40px" xmlns="http://www.w3.org/2000/svg">
  <g transform="matrix(1 0 0 1 -282 -276 )">
    <path d="M 302 276  C 313.2 276  322 284.8  322 296  C 322 307.2  313.2 316  302 316  C 290.8 316  282 307.2  282 296  C 282 284.8  290.8 276  302 276  Z " fill-rule="nonzero" fill="#b3e19d" stroke="none" />
    <path d="M 302 276.5  C 312.92 276.5  321.5 285.08  321.5 296  C 321.5 306.92  312.92 315.5  302 315.5  C 291.08 315.5  282.5 306.92  282.5 296  C 282.5 285.08  291.08 276.5  302 276.5  Z " stroke-width="1" stroke="#b3e19d" fill="none" />
  </g>
</svg>