<?xml version="1.0" encoding="utf-8"?>
<svg version="1.1" xmlns:xlink="http://www.w3.org/1999/xlink" width="14px" height="14px" xmlns="http://www.w3.org/2000/svg">
  <g transform="matrix(1 0 0 1 -295 -289 )">
    <path d="M 13.7470967741935 1.93265993265993  C 13.9156989247312 2.15263748597082  14 2.41975308641975  14 2.73400673400673  C 14 3.04826038159371  13.9156989247312 3.31537598204265  13.7470967741935 3.53535353535353  L 7.20774193548387 12.0673400673401  L 5.97935483870968 13.6700336700337  C 5.81075268817204 13.8900112233446  5.60602150537635 14  5.36516129032258 14  C 5.12430107526882 14  4.91956989247312 13.8900112233446  4.75096774193548 13.6700336700337  L 3.52258064516129 12.0673400673401  L 0.252903225806452 7.8013468013468  C 0.0843010752688173 7.58136924803591  0 7.31425364758698  0 7  C 0 6.68574635241302  0.0843010752688173 6.41863075196409  0.252903225806452 6.1986531986532  L 1.48129032258065 4.5959595959596  C 1.64989247311828 4.37598204264871  1.85462365591398 4.26599326599326  2.09548387096774 4.26599326599327  C 2.33634408602151 4.26599326599326  2.5410752688172 4.37598204264871  2.70967741935484 4.5959595959596  L 5.36516129032258 8.07239057239057  L 11.2903225806452 0.32996632996633  C 11.4589247311828 0.109988776655443  11.6636559139785 0  11.9045161290323 0  C 12.145376344086 0  12.3501075268817 0.109988776655443  12.5187096774194 0.32996632996633  L 13.7470967741935 1.93265993265993  Z " fill-rule="nonzero" fill="#ffffff" stroke="none" transform="matrix(1 0 0 1 295 289 )" />
  </g>
</svg>