<?xml version="1.0" encoding="utf-8"?>
<svg version="1.1" xmlns:xlink="http://www.w3.org/1999/xlink" width="14px" height="14px" xmlns="http://www.w3.org/2000/svg">
  <g transform="matrix(1 0 0 1 -134 -467 )">
    <path d="M 9.09635416666667 8.95052083333333  C 9.65538194444444 8.42795138888889  10.3177083333333 8.16666666666667  11.0833333333333 8.16666666666667  C 11.8914930555556 8.16666666666667  12.5796440972222 8.45073784722222  13.1477864583333 9.01888020833333  C 13.7159288194444 9.58702256944444  14 10.2751736111111  14 11.0833333333333  C 14 11.8914930555556  13.7159288194444 12.5796440972222  13.1477864583333 13.1477864583333  C 12.5796440972222 13.7159288194444  11.8914930555556 14  11.0833333333333 14  C 10.2751736111111 14  9.58702256944444 13.7159288194444  9.01888020833333 13.1477864583333  C 8.45073784722222 12.5796440972222  8.16666666666667 11.8914930555556  8.16666666666667 11.0833333333333  C 8.16666666666667 11.0104166666667  8.17274305555556 10.9071180555556  8.18489583333333 10.7734375  L 4.90364583333333 9.1328125  C 4.34461805555556 9.65538194444444  3.68229166666667 9.91666666666667  2.91666666666667 9.91666666666667  C 2.10850694444444 9.91666666666667  1.42035590277778 9.63259548611111  0.852213541666667 9.064453125  C 0.284071180555556 8.49631076388889  0 7.80815972222222  0 7  C 0 6.19184027777778  0.284071180555556 5.50368923611111  0.852213541666667 4.935546875  C 1.42035590277778 4.36740451388889  2.10850694444444 4.08333333333333  2.91666666666667 4.08333333333333  C 3.68229166666667 4.08333333333333  4.34461805555556 4.34461805555555  4.90364583333333 4.8671875  L 8.18489583333333 3.2265625  C 8.17274305555556 3.09288194444444  8.16666666666667 2.98958333333333  8.16666666666667 2.91666666666667  C 8.16666666666667 2.10850694444444  8.45073784722222 1.42035590277778  9.01888020833333 0.852213541666667  C 9.58702256944444 0.284071180555555  10.2751736111111 0  11.0833333333333 0  C 11.8914930555556 0  12.5796440972222 0.284071180555555  13.1477864583333 0.852213541666667  C 13.7159288194444 1.42035590277778  14 2.10850694444444  14 2.91666666666667  C 14 3.72482638888889  13.7159288194444 4.41297743055555  13.1477864583333 4.98111979166667  C 12.5796440972222 5.54926215277778  11.8914930555556 5.83333333333333  11.0833333333333 5.83333333333333  C 10.3177083333333 5.83333333333333  9.65538194444444 5.57204861111111  9.09635416666667 5.04947916666667  L 5.81510416666667 6.69010416666667  C 5.82725694444444 6.82378472222222  5.83333333333333 6.92708333333333  5.83333333333333 7  C 5.83333333333333 7.07291666666667  5.82725694444444 7.17621527777778  5.81510416666667 7.30989583333333  L 9.09635416666667 8.95052083333333  Z " fill-rule="nonzero" fill="#ffffff" stroke="none" transform="matrix(1 0 0 1 134 467 )" />
  </g>
</svg>