<?xml version="1.0" encoding="utf-8"?>
<svg version="1.1" xmlns:xlink="http://www.w3.org/1999/xlink" width="13px" height="14px" xmlns="http://www.w3.org/2000/svg">
  <g transform="matrix(1 0 0 1 -635 -289 )">
    <path d="M 4.64417613636364 5.33203125  C 4.69957386363636 5.38671875  4.72727272727273 5.45659722222222  4.72727272727273 5.54166666666667  L 4.72727272727273 10.7916666666667  C 4.72727272727273 10.8767361111111  4.69957386363636 10.9466145833333  4.64417613636364 11.0013020833333  C 4.58877840909091 11.0559895833333  4.51799242424242 11.0833333333333  4.43181818181818 11.0833333333333  L 3.84090909090909 11.0833333333333  C 3.75473484848485 11.0833333333333  3.68394886363636 11.0559895833333  3.62855113636364 11.0013020833333  C 3.57315340909091 10.9466145833333  3.54545454545455 10.8767361111111  3.54545454545455 10.7916666666667  L 3.54545454545455 5.54166666666667  C 3.54545454545455 5.45659722222222  3.57315340909091 5.38671875  3.62855113636364 5.33203125  C 3.68394886363636 5.27734375  3.75473484848485 5.25  3.84090909090909 5.25  L 4.43181818181818 5.25  C 4.51799242424242 5.25  4.58877840909091 5.27734375  4.64417613636364 5.33203125  Z M 7.0078125 5.33203125  C 7.06321022727273 5.38671875  7.09090909090909 5.45659722222222  7.09090909090909 5.54166666666667  L 7.09090909090909 10.7916666666667  C 7.09090909090909 10.8767361111111  7.06321022727273 10.9466145833333  7.0078125 11.0013020833333  C 6.95241477272727 11.0559895833333  6.88162878787879 11.0833333333333  6.79545454545455 11.0833333333333  L 6.20454545454546 11.0833333333333  C 6.11837121212121 11.0833333333333  6.04758522727273 11.0559895833333  5.9921875 11.0013020833333  C 5.93678977272727 10.9466145833333  5.90909090909091 10.8767361111111  5.90909090909091 10.7916666666667  L 5.90909090909091 5.54166666666667  C 5.90909090909091 5.45659722222222  5.93678977272727 5.38671875  5.9921875 5.33203125  C 6.04758522727273 5.27734375  6.11837121212121 5.25  6.20454545454546 5.25  L 6.79545454545455 5.25  C 6.88162878787879 5.25  6.95241477272727 5.27734375  7.0078125 5.33203125  Z M 9.37144886363636 5.33203125  C 9.42684659090909 5.38671875  9.45454545454546 5.45659722222222  9.45454545454546 5.54166666666667  L 9.45454545454546 10.7916666666667  C 9.45454545454546 10.8767361111111  9.42684659090909 10.9466145833333  9.37144886363636 11.0013020833333  C 9.31605113636364 11.0559895833333  9.24526515151515 11.0833333333333  9.15909090909091 11.0833333333333  L 8.56818181818182 11.0833333333333  C 8.48200757575758 11.0833333333333  8.41122159090909 11.0559895833333  8.35582386363636 11.0013020833333  C 8.30042613636364 10.9466145833333  8.27272727272727 10.8767361111111  8.27272727272727 10.7916666666667  L 8.27272727272727 5.54166666666667  C 8.27272727272727 5.45659722222222  8.30042613636364 5.38671875  8.35582386363636 5.33203125  C 8.41122159090909 5.27734375  8.48200757575758 5.25  8.56818181818182 5.25  L 9.15909090909091 5.25  C 9.24526515151515 5.25  9.31605113636364 5.27734375  9.37144886363636 5.33203125  Z M 10.5717329545455 12.509765625  C 10.6148200757576 12.3973524305556  10.6363636363636 12.2743055555556  10.6363636363636 12.140625  L 10.6363636363636 3.5  L 2.36363636363636 3.5  L 2.36363636363636 12.140625  C 2.36363636363636 12.2743055555556  2.38517992424242 12.3973524305556  2.42826704545455 12.509765625  C 2.47135416666667 12.6221788194444  2.51598011363636 12.7042100694444  2.56214488636364 12.755859375  C 2.60830965909091 12.8075086805556  2.640625 12.8333333333333  2.65909090909091 12.8333333333333  L 10.3409090909091 12.8333333333333  C 10.359375 12.8333333333333  10.3916903409091 12.8075086805556  10.4378551136364 12.755859375  C 10.4840198863636 12.7042100694444  10.5286458333333 12.6221788194444  10.5717329545455 12.509765625  Z M 4.88423295454546 1.26692708333333  L 4.43181818181818 2.33333333333333  L 8.56818181818182 2.33333333333333  L 8.125 1.26692708333333  C 8.08191287878788 1.21223958333333  8.0295928030303 1.17881944444444  7.96803977272727 1.16666666666667  L 5.04119318181818 1.16666666666667  C 4.97964015151515 1.17881944444444  4.92732007575758 1.21223958333333  4.88423295454546 1.26692708333333  Z M 12.9169034090909 2.41536458333333  C 12.9723011363636 2.47005208333333  13 2.53993055555555  13 2.625  L 13 3.20833333333333  C 13 3.29340277777778  12.9723011363636 3.36328125  12.9169034090909 3.41796875  C 12.8615056818182 3.47265625  12.7907196969697 3.5  12.7045454545455 3.5  L 11.8181818181818 3.5  L 11.8181818181818 12.140625  C 11.8181818181818 12.6449652777778  11.6735321969697 13.0809461805556  11.3842329545455 13.4485677083333  C 11.0949337121212 13.8161892361111  10.7471590909091 14  10.3409090909091 14  L 2.65909090909091 14  C 2.25284090909091 14  1.90506628787879 13.822265625  1.61576704545455 13.466796875  C 1.3264678030303 13.111328125  1.18181818181818 12.6814236111111  1.18181818181818 12.1770833333333  L 1.18181818181818 3.5  L 0.295454545454545 3.5  C 0.209280303030303 3.5  0.138494318181818 3.47265625  0.0830965909090909 3.41796875  C 0.0276988636363636 3.36328125  0 3.29340277777778  0 3.20833333333333  L 0 2.625  C 0 2.53993055555555  0.0276988636363636 2.47005208333333  0.0830965909090909 2.41536458333333  C 0.138494318181818 2.36067708333333  0.209280303030303 2.33333333333333  0.295454545454545 2.33333333333333  L 3.1484375 2.33333333333333  L 3.79474431818182 0.811197916666667  C 3.88707386363636 0.586371527777777  4.05326704545455 0.394965277777777  4.29332386363636 0.236979166666667  C 4.53338068181818 0.0789930555555547  4.77651515151515 0  5.02272727272727 0  L 7.97727272727273 0  C 8.22348484848485 0  8.46661931818182 0.0789930555555547  8.70667613636364 0.236979166666667  C 8.94673295454546 0.394965277777777  9.11292613636364 0.586371527777777  9.20525568181818 0.811197916666667  L 9.8515625 2.33333333333333  L 12.7045454545455 2.33333333333333  C 12.7907196969697 2.33333333333333  12.8615056818182 2.36067708333333  12.9169034090909 2.41536458333333  Z " fill-rule="nonzero" fill="#ffffff" stroke="none" transform="matrix(1 0 0 1 635 289 )" />
  </g>
</svg>