<?xml version="1.0" encoding="utf-8"?>
<svg version="1.1" xmlns:xlink="http://www.w3.org/1999/xlink" width="57px" height="41px" xmlns="http://www.w3.org/2000/svg">
  <g transform="matrix(1 0 0 1 -170 -454 )">
    <path d="M 0 0.5  L 0 39.5  L 52 39.5  C 53.96 39.5  55.5 37.96  55.5 36  L 55.5 4  C 55.5 2.04  53.96 0.5  52 0.5  L 0 0.5  Z " fill-rule="nonzero" fill="#a0cfff" stroke="none" transform="matrix(1 0 0 1 170 454 )" />
    <path d="M 0 39.5  L 52 39.5  C 53.96 39.5  55.5 37.96  55.5 36  L 55.5 4  C 55.5 2.04  53.96 0.5  52 0.5  L 0 0.5  " stroke-width="1" stroke="#a0cfff" fill="none" transform="matrix(1 0 0 1 170 454 )" />
  </g>
</svg>