<?xml version="1.0" encoding="utf-8"?>
<svg version="1.1" xmlns:xlink="http://www.w3.org/1999/xlink" width="14px" height="15px" xmlns="http://www.w3.org/2000/svg">
  <g transform="matrix(1 0 0 1 -73 -577 )">
    <path d="M 3.57151442307692 11.3151041666667  C 3.78185096153846 11.5321180555556  3.88701923076923 11.7939814814815  3.88701923076923 12.1006944444444  C 3.88701923076923 12.4074074074074  3.78185096153846 12.6692708333333  3.57151442307692 12.8862847222222  C 3.36117788461538 13.1032986111111  3.1073717948718 13.2118055555556  2.81009615384615 13.2118055555556  C 2.51842948717949 13.2118055555556  2.26602564102564 13.1018518518519  2.05288461538462 12.8819444444444  C 1.83974358974359 12.662037037037  1.73317307692308 12.4016203703704  1.73317307692308 12.1006944444444  C 1.73317307692308 11.7939814814815  1.83834134615385 11.5321180555556  2.04867788461538 11.3151041666667  C 2.25901442307692 11.0980902777778  2.51282051282051 10.9895833333333  2.81009615384615 10.9895833333333  C 3.1073717948718 10.9895833333333  3.36117788461538 11.0980902777778  3.57151442307692 11.3151041666667  Z M 7.76141826923077 13.1032986111111  C 7.97175480769231 13.3203125  8.07692307692308 13.5821759259259  8.07692307692308 13.8888888888889  C 8.07692307692308 14.1956018518519  7.97175480769231 14.4574652777778  7.76141826923077 14.6744791666667  C 7.55108173076923 14.8914930555556  7.29727564102564 15  7 15  C 6.70272435897436 15  6.44891826923077 14.8914930555556  6.23858173076923 14.6744791666667  C 6.02824519230769 14.4574652777778  5.92307692307692 14.1956018518519  5.92307692307692 13.8888888888889  C 5.92307692307692 13.5821759259259  6.02824519230769 13.3203125  6.23858173076923 13.1032986111111  C 6.44891826923077 12.8862847222222  6.70272435897436 12.7777777777778  7 12.7777777777778  C 7.29727564102564 12.7777777777778  7.55108173076923 12.8862847222222  7.76141826923077 13.1032986111111  Z M 1.83834134615385 6.9921875  C 2.04867788461538 7.20920138888889  2.15384615384615 7.47106481481481  2.15384615384615 7.77777777777778  C 2.15384615384615 8.08449074074074  2.04867788461538 8.34635416666667  1.83834134615385 8.56336805555556  C 1.62800480769231 8.78038194444444  1.37419871794872 8.88888888888889  1.07692307692308 8.88888888888889  C 0.779647435897436 8.88888888888889  0.525841346153846 8.78038194444444  0.315504807692308 8.56336805555556  C 0.105168269230769 8.34635416666667  0 8.08449074074074  0 7.77777777777778  C 0 7.47106481481481  0.105168269230769 7.20920138888889  0.315504807692308 6.9921875  C 0.525841346153846 6.77517361111111  0.779647435897436 6.66666666666667  1.07692307692308 6.66666666666667  C 1.37419871794872 6.66666666666667  1.62800480769231 6.77517361111111  1.83834134615385 6.9921875  Z M 11.9513221153846 11.3151041666667  C 12.1616586538462 11.5321180555556  12.2668269230769 11.7939814814815  12.2668269230769 12.1006944444444  C 12.2668269230769 12.4016203703704  12.1602564102564 12.662037037037  11.9471153846154 12.8819444444444  C 11.7339743589744 13.1018518518519  11.4815705128205 13.2118055555556  11.1899038461538 13.2118055555556  C 10.8926282051282 13.2118055555556  10.6388221153846 13.1032986111111  10.4284855769231 12.8862847222222  C 10.2181490384615 12.6692708333333  10.1129807692308 12.4074074074074  10.1129807692308 12.1006944444444  C 10.1129807692308 11.7939814814815  10.2181490384615 11.5321180555556  10.4284855769231 11.3151041666667  C 10.6388221153846 11.0980902777778  10.8926282051282 10.9895833333333  11.1899038461538 10.9895833333333  C 11.4871794871795 10.9895833333333  11.7409855769231 11.0980902777778  11.9513221153846 11.3151041666667  Z M 3.76081730769231 2.47395833333333  C 4.0244391025641 2.74594907407407  4.15625 3.07291666666667  4.15625 3.45486111111111  C 4.15625 3.83680555555556  4.0244391025641 4.16377314814815  3.76081730769231 4.43576388888889  C 3.49719551282051 4.70775462962963  3.18028846153846 4.84375  2.81009615384615 4.84375  C 2.43990384615385 4.84375  2.1229967948718 4.70775462962963  1.859375 4.43576388888889  C 1.59575320512821 4.16377314814815  1.46394230769231 3.83680555555556  1.46394230769231 3.45486111111111  C 1.46394230769231 3.07291666666667  1.59575320512821 2.74594907407407  1.859375 2.47395833333333  C 2.1229967948718 2.20196759259259  2.43990384615385 2.06597222222222  2.81009615384615 2.06597222222222  C 3.18028846153846 2.06597222222222  3.49719551282051 2.20196759259259  3.76081730769231 2.47395833333333  Z M 13.6844951923077 6.9921875  C 13.8948317307692 7.20920138888889  14 7.47106481481481  14 7.77777777777778  C 14 8.08449074074074  13.8948317307692 8.34635416666667  13.6844951923077 8.56336805555556  C 13.4741586538462 8.78038194444444  13.2203525641026 8.88888888888889  12.9230769230769 8.88888888888889  C 12.6258012820513 8.88888888888889  12.3719951923077 8.78038194444444  12.1616586538462 8.56336805555556  C 11.9513221153846 8.34635416666667  11.8461538461538 8.08449074074074  11.8461538461538 7.77777777777778  C 11.8461538461538 7.47106481481481  11.9513221153846 7.20920138888889  12.1616586538462 6.9921875  C 12.3719951923077 6.77517361111111  12.6258012820513 6.66666666666667  12.9230769230769 6.66666666666667  C 13.2203525641026 6.66666666666667  13.4741586538462 6.77517361111111  13.6844951923077 6.9921875  Z M 8.14423076923077 0.486111111111112  C 8.45833333333333 0.810185185185184  8.61538461538462 1.2037037037037  8.61538461538462 1.66666666666667  C 8.61538461538462 2.12962962962963  8.45833333333333 2.52314814814815  8.14423076923077 2.84722222222222  C 7.83012820512821 3.1712962962963  7.44871794871795 3.33333333333333  7 3.33333333333333  C 6.55128205128205 3.33333333333333  6.1698717948718 3.1712962962963  5.85576923076923 2.84722222222222  C 5.54166666666667 2.52314814814815  5.38461538461539 2.12962962962963  5.38461538461539 1.66666666666667  C 5.38461538461539 1.2037037037037  5.54166666666667 0.810185185185184  5.85576923076923 0.486111111111112  C 6.1698717948718 0.162037037037038  6.55128205128205 0  7 0  C 7.44871794871795 0  7.83012820512821 0.162037037037038  8.14423076923077 0.486111111111112  Z M 12.5192307692308 2.08333333333333  C 12.8894230769231 2.46527777777778  13.0745192307692 2.9224537037037  13.0745192307692 3.45486111111111  C 13.0745192307692 3.99305555555556  12.8894230769231 4.45167824074074  12.5192307692308 4.83072916666667  C 12.1490384615385 5.20978009259259  11.7059294871795 5.39930555555556  11.1899038461538 5.39930555555556  C 10.6682692307692 5.39930555555556  10.2237580128205 5.20978009259259  9.85637019230769 4.83072916666667  C 9.48898237179487 4.45167824074074  9.30528846153846 3.99305555555556  9.30528846153846 3.45486111111111  C 9.30528846153846 2.9224537037037  9.48898237179487 2.46527777777778  9.85637019230769 2.08333333333333  C 10.2237580128205 1.70138888888889  10.6682692307692 1.51041666666667  11.1899038461538 1.51041666666667  C 11.7059294871795 1.51041666666667  12.1490384615385 1.70138888888889  12.5192307692308 2.08333333333333  Z " fill-rule="nonzero" fill="#ffffff" stroke="none" transform="matrix(1 0 0 1 73 577 )" />
  </g>
</svg>